<svg version="1.1" xmlns="http://www.w3.org/2000/svg" viewBox="0 0 1054.4154866536448 1512.3333333333335" width="1054.4154866536448" height="1512.3333333333335">
  <!-- svg-source:excalidraw -->
  
  <defs>
    <style class="style-fonts">
      @font-face {
        font-family: "Virgil";
        src: url("https://excalidraw.com/Virgil.woff2");
      }
      @font-face {
        font-family: "Cascadia";
        src: url("https://excalidraw.com/Cascadia.woff2");
      }
    </style>
    
  </defs>
  <rect x="0" y="0" width="1054.4154866536448" height="1512.3333333333335" fill="#ffffff"></rect><g stroke-opacity="0.8" fill-opacity="0.8" stroke-linecap="round" transform="translate(63.08333333333189 920.0000000000001) rotate(0 269.1666666666668 291.16666666666663)"><path d="M7.86 8.16 C7.86 8.16, 7.86 8.16, 7.86 8.16 M7.86 8.16 C7.86 8.16, 7.86 8.16, 7.86 8.16 M3.66 19.09 C9.17 12.82, 11.93 6.84, 18.1 2.48 M3.66 19.09 C7.86 15.2, 10.9 8.72, 18.1 2.48 M2.75 26.24 C9.84 17.53, 16.29 11.83, 24.4 1.33 M2.75 26.24 C9.42 18.35, 14.84 12.92, 24.4 1.33 M1.83 33.39 C11.23 22.41, 20.6 9.11, 30.7 0.18 M1.83 33.39 C11.25 24.08, 19.55 12.01, 30.7 0.18 M1.57 39.79 C12.12 29.52, 23.47 15.85, 34.37 2.05 M1.57 39.79 C14.29 25.8, 25.88 11.38, 34.37 2.05 M1.96 45.43 C9.87 34.04, 19.61 23.43, 39.36 2.41 M1.96 45.43 C11.33 34.36, 20.67 22.94, 39.36 2.41 M1.7 51.83 C13.04 36.26, 27.2 20.13, 45 2.02 M1.7 51.83 C14.56 35.95, 28.04 22.96, 45 2.02 M1.44 58.23 C11.99 45.59, 20.76 34.75, 49.99 2.38 M1.44 58.23 C18.71 39.02, 35.19 20.18, 49.99 2.38 M1.83 63.87 C20.15 41.72, 42.83 17.21, 55.63 1.98 M1.83 63.87 C14.09 49.59, 27.73 32.42, 55.63 1.98 M1.57 70.27 C18.75 51.35, 35.89 30.86, 60.62 2.34 M1.57 70.27 C22.42 46.96, 41.14 24.62, 60.62 2.34 M1.97 75.91 C20.68 54.77, 41.37 30.94, 66.26 1.95 M1.97 75.91 C20.6 55.98, 37.71 34.89, 66.26 1.95 M1.71 82.31 C21.39 59.77, 38.87 40.25, 71.25 2.31 M1.71 82.31 C15.47 64.59, 30.07 48.26, 71.25 2.31 M1.44 88.71 C27.2 56.63, 55.98 24.41, 76.89 1.91 M1.44 88.71 C31.59 54.55, 61.74 20.43, 76.89 1.91 M1.84 94.35 C21.37 69.81, 44.95 44.43, 81.88 2.27 M1.84 94.35 C27.55 63.14, 56.65 30.9, 81.88 2.27 M1.58 100.75 C33.9 66.28, 62.6 29.93, 87.52 1.88 M1.58 100.75 C22.16 75.51, 42.67 51.5, 87.52 1.88 M1.97 106.39 C22.8 80.37, 47.27 54.37, 92.51 2.24 M1.97 106.39 C31.24 74.83, 57.1 43.28, 92.51 2.24 M1.71 112.79 C37.86 67.35, 77.33 23.94, 98.15 1.85 M1.71 112.79 C24.11 89.97, 45.18 65.12, 98.15 1.85 M1.45 119.19 C34.14 82.81, 66.03 45.15, 103.14 2.21 M1.45 119.19 C26.46 89.36, 50.92 59.41, 103.14 2.21 M1.84 124.83 C27.31 92.46, 55.99 59.53, 108.78 1.81 M1.84 124.83 C38.88 83.54, 73.34 43.04, 108.78 1.81 M1.58 131.23 C34.72 90.66, 67.14 55.57, 113.77 2.17 M1.58 131.23 C38.98 88.25, 77.03 44.66, 113.77 2.17 M1.98 136.87 C34.31 103.37, 65.41 63.98, 119.41 1.78 M1.98 136.87 C48.16 85, 93.5 33.74, 119.41 1.78 M1.72 143.27 C36.71 104.59, 71.29 61.16, 124.4 2.14 M1.72 143.27 C39.34 100.36, 78.33 55.01, 124.4 2.14 M1.45 149.67 C32.04 112.06, 63.55 76.31, 130.04 1.74 M1.45 149.67 C49.11 93.98, 96.2 39.35, 130.04 1.74 M1.85 155.31 C40.97 108.12, 83.79 61.24, 135.03 2.1 M1.85 155.31 C44.89 107.68, 88.09 57.77, 135.03 2.1 M1.59 161.71 C43.46 115.34, 84.38 68.9, 140.67 1.71 M1.59 161.71 C40.37 117.34, 79.57 71.46, 140.67 1.71 M1.98 167.35 C45.31 117.21, 87.04 70.23, 145.66 2.07 M1.98 167.35 C43.91 119.99, 85.14 72.79, 145.66 2.07 M1.72 173.75 C41.07 129.03, 77.5 85.41, 150.65 2.43 M1.72 173.75 C47.2 121.5, 91.31 71.39, 150.65 2.43 M1.46 180.14 C45.19 132.75, 85.46 84.53, 156.29 2.03 M1.46 180.14 C56.06 117.58, 110.44 55.8, 156.29 2.03 M1.85 185.79 C47.83 135.21, 91.48 83.73, 161.28 2.39 M1.85 185.79 C64.04 111.82, 127.15 41.06, 161.28 2.39 M1.59 192.19 C64.61 119.02, 126.5 49.14, 166.92 2 M1.59 192.19 C36.42 148.44, 74.62 105.34, 166.92 2 M1.99 197.83 C67.33 122.66, 131.07 50.84, 171.91 2.36 M1.99 197.83 C60.96 131.65, 116.81 66.13, 171.91 2.36 M1.72 204.23 C47.24 150.98, 93.5 98.85, 177.55 1.96 M1.72 204.23 C43.68 156.76, 83.74 110.37, 177.55 1.96 M1.46 210.62 C60.81 144.45, 118.04 76.85, 182.54 2.32 M1.46 210.62 C53.15 149.78, 106.58 88.28, 182.54 2.32 M1.86 216.27 C50.99 159.71, 100.81 100.66, 188.18 1.93 M1.86 216.27 C55.34 155.93, 106.52 96.18, 188.18 1.93 M1.6 222.66 C70.58 145.71, 137.31 68.18, 193.17 2.29 M1.6 222.66 C44.24 175.26, 85.27 127.39, 193.17 2.29 M1.99 228.31 C54.74 168.01, 104.46 110.68, 198.81 1.9 M1.99 228.31 C55.6 166.14, 109.94 103.89, 198.81 1.9 M1.73 234.71 C48.64 181.97, 95.24 127.32, 203.8 2.26 M1.73 234.71 C53.83 174.36, 106.62 112.37, 203.8 2.26 M1.47 241.1 C84.37 147.93, 165.12 52.89, 209.44 1.86 M1.47 241.1 C66.79 168.05, 132.56 93.24, 209.44 1.86 M1.86 246.75 C54.73 190.2, 103.27 132.55, 214.43 2.22 M1.86 246.75 C79.54 154.52, 158.46 64.08, 214.43 2.22 M1.6 253.14 C76.68 165.43, 152.66 76.89, 220.07 1.83 M1.6 253.14 C62.37 181.98, 124.26 109.85, 220.07 1.83 M2 258.79 C78.03 172.81, 150.66 89.94, 225.06 2.19 M2 258.79 C65.53 184.66, 128.43 113.2, 225.06 2.19 M1.73 265.19 C68.03 185.46, 136.31 109.91, 230.7 1.79 M1.73 265.19 C63.76 191.64, 127.32 119.07, 230.7 1.79 M1.47 271.58 C91.17 164.6, 184.41 58.88, 235.69 2.15 M1.47 271.58 C78.06 184.44, 155.47 95.75, 235.69 2.15 M1.87 277.23 C77.2 192.09, 150.24 105.43, 241.33 1.76 M1.87 277.23 C88.49 177.52, 175.24 76.83, 241.33 1.76 M1.61 283.62 C54.54 225.94, 105.53 168.02, 246.32 2.12 M1.61 283.62 C59.2 219.08, 116.94 152.2, 246.32 2.12 M2 289.27 C101.61 173.4, 199.94 59.65, 251.96 1.72 M2 289.27 C57.73 224.41, 114.69 159.07, 251.96 1.72 M1.74 295.66 C72 215.7, 140.77 136.37, 256.95 2.08 M1.74 295.66 C85.28 201.85, 166.41 107.87, 256.95 2.08 M1.48 302.06 C60.89 230.84, 123.35 160.16, 262.59 1.69 M1.48 302.06 C84.35 206.56, 168.5 110.03, 262.59 1.69 M1.87 307.71 C101.21 189.29, 203.69 73.2, 267.58 2.05 M1.87 307.71 C80.47 216.58, 160.82 125.19, 267.58 2.05 M1.61 314.1 C64.32 240.46, 128.91 169.34, 272.56 2.41 M1.61 314.1 C86.56 216.27, 171.36 118.18, 272.56 2.41 M2.01 319.75 C66.2 244.1, 133.07 169.12, 278.21 2.01 M2.01 319.75 C81.69 231.65, 158.51 142.45, 278.21 2.01 M1.74 326.14 C85.48 232.47, 168.36 136.55, 283.19 2.37 M1.74 326.14 C73.93 242.56, 147.86 157.55, 283.19 2.37 M1.48 332.54 C73.67 249.53, 145.5 167.83, 288.84 1.98 M1.48 332.54 C105.49 214, 209.33 94.16, 288.84 1.98 M1.88 338.19 C69.37 258.96, 137.17 180.47, 293.82 2.34 M1.88 338.19 C62.77 269.94, 122.54 201.22, 293.82 2.34 M1.62 344.58 C101.85 228.22, 203.1 111.78, 299.47 1.94 M1.62 344.58 C70.87 263.19, 140.77 183.15, 299.47 1.94 M2.01 350.23 C115.29 220.47, 228.12 90.43, 304.45 2.3 M2.01 350.23 C120.4 215.3, 238.09 79.56, 304.45 2.3 M1.75 356.62 C102.99 241.03, 203.64 124.57, 310.1 1.91 M1.75 356.62 C122.67 217.64, 242.94 78.81, 310.1 1.91 M1.49 363.02 C107.05 241.77, 211.33 120.18, 315.08 2.27 M1.49 363.02 C79.96 272.77, 157.02 184.37, 315.08 2.27 M1.88 368.66 C112.28 244.07, 221.81 117.53, 320.73 1.88 M1.88 368.66 C102.87 253.13, 202.32 138.47, 320.73 1.88 M1.62 375.06 C83.98 281.99, 165.4 186.39, 325.71 2.24 M1.62 375.06 C70.46 296.89, 137.71 219.53, 325.71 2.24 M2.02 380.71 C74.64 296.45, 145.54 213.5, 331.36 1.84 M2.02 380.71 C93.85 276.26, 184.5 171.02, 331.36 1.84 M1.75 387.1 C122.58 246.02, 245.94 106.4, 336.34 2.2 M1.75 387.1 C100.02 272.88, 199.54 158.82, 336.34 2.2 M1.49 393.5 C105.33 275.77, 206.73 158.56, 341.99 1.81 M1.49 393.5 C122.36 257.18, 241.97 120.1, 341.99 1.81 M1.89 399.14 C77.93 311.85, 154.42 225.31, 346.97 2.17 M1.89 399.14 C114.85 270.88, 228.01 141.04, 346.97 2.17 M1.63 405.54 C83.25 312.69, 165.06 220.69, 352.62 1.77 M1.63 405.54 C139.52 245.93, 279.3 85.7, 352.62 1.77 M2.02 411.18 C94.36 303.27, 186.33 196.53, 357.6 2.13 M2.02 411.18 C111.91 285.17, 222.14 157.95, 357.6 2.13 M1.76 417.58 C135.52 266.1, 267.7 114.15, 363.25 1.74 M1.76 417.58 C102.52 303.4, 201.17 189.67, 363.25 1.74 M1.5 423.98 C91.65 320.18, 184.11 213.33, 368.23 2.1 M1.5 423.98 C92.32 317.38, 184.19 212.2, 368.23 2.1 M1.89 429.62 C136.95 271.11, 274.17 114.2, 373.88 1.7 M1.89 429.62 C88.82 330.56, 175.24 230.96, 373.88 1.7 M1.63 436.02 C94.69 327.27, 188.75 219.83, 378.86 2.06 M1.63 436.02 C131.55 288.12, 261.08 139.42, 378.86 2.06 M2.02 441.66 C78.35 351.25, 154.73 263.08, 383.85 2.42 M2.02 441.66 C120.52 304.52, 240.44 165.96, 383.85 2.42 M1.76 448.06 C90.17 345.33, 177.89 243.15, 389.49 2.03 M1.76 448.06 C148.74 277.05, 297.15 107.67, 389.49 2.03 M1.5 454.46 C134.95 299.63, 268.53 144.81, 394.48 2.39 M1.5 454.46 C142.28 291.02, 283.87 127.4, 394.48 2.39 M1.9 460.1 C108.04 338.97, 213.3 216.84, 400.12 1.99 M1.9 460.1 C140.03 299.86, 279.59 139.36, 400.12 1.99 M1.64 466.5 C150.76 297.35, 297.14 127.47, 405.11 2.35 M1.64 466.5 C84.58 371.82, 166.36 277.01, 405.11 2.35 M2.03 472.14 C141.12 312.32, 279.67 152.78, 410.75 1.96 M2.03 472.14 C93.52 366, 186.72 259.16, 410.75 1.96 M1.77 478.54 C147.51 308.72, 293.87 139.39, 415.74 2.32 M1.77 478.54 C113.79 350.84, 224.13 223.86, 415.74 2.32 M1.51 484.94 C143.79 321.65, 286.65 157.6, 421.38 1.93 M1.51 484.94 C162.38 297.95, 325.56 110.78, 421.38 1.93 M1.9 490.58 C129.88 341.62, 260.25 191.11, 426.37 2.29 M1.9 490.58 C158.38 310.23, 315.85 129.4, 426.37 2.29 M1.64 496.98 C114.45 368.99, 226.55 239.01, 432.01 1.89 M1.64 496.98 C172.52 299.91, 342.71 103.5, 432.01 1.89 M2.03 502.62 C140.65 343.43, 278.58 184.71, 437 2.25 M2.03 502.62 C143.45 337.41, 285.74 172.94, 437 2.25 M1.77 509.02 C91.42 406.45, 182.12 301.91, 442.64 1.86 M1.77 509.02 C93.18 401.09, 186.26 294.05, 442.64 1.86 M1.51 515.42 C178.11 314.74, 350.82 113.68, 447.63 2.22 M1.51 515.42 C156.72 336.02, 311.61 157.83, 447.63 2.22 M1.91 521.06 C171.23 324.79, 341.49 128.51, 453.27 1.82 M1.91 521.06 C178.69 320.53, 353.96 118.76, 453.27 1.82 M1.64 527.46 C108.38 404.53, 215.37 281.21, 458.26 2.18 M1.64 527.46 C107.17 408.22, 210.43 289.11, 458.26 2.18 M2.04 533.1 C137.33 379.2, 272.82 222.42, 463.9 1.79 M2.04 533.1 C130.86 387.75, 257.94 241.01, 463.9 1.79 M1.78 539.5 C129.16 394.6, 255.76 250.66, 468.89 2.15 M1.78 539.5 C171.86 344.66, 340.84 149.37, 468.89 2.15 M1.52 545.9 C177.92 343.66, 353.67 141.6, 474.53 1.75 M1.52 545.9 C102.55 428.66, 203.58 312.72, 474.53 1.75 M1.91 551.54 C105.48 432.26, 208.77 313.8, 479.52 2.11 M1.91 551.54 C165.66 365.28, 328.96 177.85, 479.52 2.11 M2.31 557.18 C163.74 369.53, 327.42 181.23, 485.17 1.72 M2.31 557.18 C166.94 370.29, 329.13 183.27, 485.17 1.72 M3.36 562.07 C151.46 393.62, 298.55 223.97, 490.15 2.08 M3.36 562.07 C171.54 367.5, 341.09 173.5, 490.15 2.08 M4.41 566.96 C116.37 443.55, 225.69 316.51, 495.8 1.68 M4.41 566.96 C187.48 354.81, 371.66 142.68, 495.8 1.68 M6.77 570.34 C136.97 418.2, 267.2 266.47, 500.78 2.04 M6.77 570.34 C182.13 367.86, 357.37 166.88, 500.78 2.04 M8.48 574.47 C189.91 362.57, 373.55 151.82, 507.08 0.89 M8.48 574.47 C133.85 429.88, 258.59 286.84, 507.08 0.89 M12.15 576.34 C183.4 376.9, 357.48 176.61, 512.07 1.25 M12.15 576.34 C179.52 384.85, 345.53 193.71, 512.07 1.25 M15.17 578.97 C123 453.83, 229.59 329.9, 516.4 2.37 M15.17 578.97 C154.41 417.37, 293.41 257.29, 516.4 2.37 M18.85 580.84 C167.49 411.12, 313.48 243.02, 521.39 2.73 M18.85 580.84 C142.36 438.92, 266.24 296.77, 521.39 2.73 M23.18 581.95 C180.91 398.51, 340.11 216.26, 525.06 4.6 M23.18 581.95 C207.69 368.5, 393.42 154.35, 525.06 4.6 M28.16 582.31 C207.66 377.98, 386.09 173.36, 528.08 7.22 M28.16 582.31 C152.78 438.69, 277.71 295.75, 528.08 7.22 M33.15 582.67 C198.48 392.8, 363.42 203.53, 531.75 9.09 M33.15 582.67 C146.15 450.26, 260.62 318.5, 531.75 9.09 M38.14 583.03 C189.78 410.12, 339.06 237.44, 534.12 12.47 M38.14 583.03 C183.51 416.12, 329.5 247.59, 534.12 12.47 M43.12 583.39 C147.85 460.61, 255.3 338.18, 535.82 16.61 M43.12 583.39 C217.24 382.88, 391.66 182.35, 535.82 16.61 M48.77 583 C243.02 361.92, 436.49 140.06, 538.19 19.98 M48.77 583 C206.57 397.47, 366.72 213.51, 538.19 19.98 M53.75 583.36 C173.38 446.35, 294.7 307.03, 539.24 24.87 M53.75 583.36 C165.32 451.53, 279.55 320.86, 539.24 24.87 M59.4 582.96 C155.37 472.17, 253.97 361.08, 538.32 32.03 M59.4 582.96 C195.68 426.77, 331.35 270.41, 538.32 32.03 M64.38 583.32 C252.93 367.25, 442.43 148.78, 538.06 38.42 M64.38 583.32 C233.36 390.71, 401.85 196.64, 538.06 38.42 M70.03 582.93 C170.79 470.91, 269.7 356.62, 538.45 44.07 M70.03 582.93 C206.61 423.5, 345.2 264.11, 538.45 44.07 M75.01 583.29 C237.3 395.44, 401.95 207.44, 538.19 50.46 M75.01 583.29 C258.17 371.33, 442.55 159.74, 538.19 50.46 M80.66 582.89 C173.49 478.21, 266.34 372.43, 538.59 56.11 M80.66 582.89 C212.16 430.62, 345.11 277.08, 538.59 56.11 M85.64 583.25 C220.12 427.08, 355.46 272.45, 538.33 62.5 M85.64 583.25 C192.28 462.5, 297.35 341.8, 538.33 62.5 M91.29 582.86 C211.52 444.65, 331.47 307.36, 538.06 68.9 M91.29 582.86 C264.94 384.42, 438.17 185.29, 538.06 68.9 M96.27 583.22 C241.33 417.2, 387.27 250.15, 538.46 74.55 M96.27 583.22 C238.63 419.31, 383 254.31, 538.46 74.55 M101.92 582.83 C189.74 482.01, 279.45 379.27, 538.2 80.94 M101.92 582.83 C231.71 433.96, 362.26 284.1, 538.2 80.94 M106.9 583.19 C213.42 461.82, 317.06 341.48, 538.59 86.59 M106.9 583.19 C250.66 414.45, 395.97 247.65, 538.59 86.59 M112.55 582.79 C246.51 426.63, 383.39 270.09, 538.33 92.98 M112.55 582.79 C254.18 420.76, 395.3 258.92, 538.33 92.98 M117.53 583.15 C265.56 413.19, 413.73 242.61, 538.07 99.38 M117.53 583.15 C252.43 427.75, 387.97 272.41, 538.07 99.38 M123.18 582.76 C215.27 480.2, 307.53 374.69, 538.46 105.03 M123.18 582.76 C283.59 399.37, 444.15 214.46, 538.46 105.03 M128.16 583.12 C238.52 456.11, 349.55 328.79, 538.2 111.42 M128.16 583.12 C263 430.04, 396.78 275.81, 538.2 111.42 M133.81 582.72 C224.26 477.63, 314.79 373.42, 538.6 117.07 M133.81 582.72 C276.82 415.05, 422.14 247.47, 538.6 117.07 M138.79 583.08 C263.44 440.06, 386.7 298.72, 538.33 123.46 M138.79 583.08 C297.01 403.53, 454.55 222.35, 538.33 123.46 M144.44 582.69 C282.4 422.99, 421.01 263.03, 538.07 129.86 M144.44 582.69 C277.89 429.53, 409.55 277.61, 538.07 129.86 M149.43 583.05 C266.91 447.99, 385.48 312.84, 538.47 135.5 M149.43 583.05 C287.48 422.86, 426.91 262.26, 538.47 135.5 M154.41 583.41 C282.85 435.34, 413.49 284.94, 538.21 141.9 M154.41 583.41 C308.35 407.06, 462.16 230.71, 538.21 141.9 M160.06 583.01 C305.53 417.29, 449.85 250.64, 538.6 147.55 M160.06 583.01 C255.37 476.68, 348.42 368.99, 538.6 147.55 M165.04 583.37 C243.18 492.56, 321.87 401.22, 538.34 153.94 M165.04 583.37 C248.2 488.14, 332.21 391.15, 538.34 153.94 M170.69 582.98 C311.67 421.73, 452.01 260.63, 538.08 160.34 M170.69 582.98 C274.25 463.14, 378.64 342.71, 538.08 160.34 M175.67 583.34 C293.35 451.27, 408.3 317.48, 538.47 165.98 M175.67 583.34 C277.4 464.02, 379.94 346.13, 538.47 165.98 M181.32 582.94 C271.81 478.77, 360.7 377.73, 538.21 172.38 M181.32 582.94 C282.22 464.69, 384.39 347.47, 538.21 172.38 M186.3 583.3 C291.55 460.26, 399.43 335.85, 538.61 178.03 M186.3 583.3 C270.15 487.04, 353.48 390.39, 538.61 178.03 M191.95 582.91 C273.67 488.78, 355.08 396.02, 538.34 184.42 M191.95 582.91 C283.43 478.06, 373.72 373.59, 538.34 184.42 M196.93 583.27 C308.34 456.96, 420.25 329.65, 538.08 190.82 M196.93 583.27 C313.81 450.02, 430.97 315.32, 538.08 190.82 M202.58 582.88 C302.39 469.12, 401.21 355.06, 538.48 196.46 M202.58 582.88 C276 499.07, 348.77 415.62, 538.48 196.46 M207.56 583.24 C283.79 494.68, 362.2 403.47, 538.22 202.86 M207.56 583.24 C289.4 488.31, 372.51 392.62, 538.22 202.86 M213.21 582.84 C309.6 471.46, 406.13 360.16, 538.61 208.5 M213.21 582.84 C327.1 453, 439.53 322.79, 538.61 208.5 M218.19 583.2 C286.62 507.66, 353.45 430.4, 538.35 214.9 M218.19 583.2 C283.93 507.78, 350.08 431.93, 538.35 214.9 M223.84 582.81 C287.86 509.37, 352.03 435.19, 538.09 221.3 M223.84 582.81 C299.99 494.78, 375.93 406.54, 538.09 221.3 M228.82 583.17 C326.24 471.07, 423.94 357.52, 538.48 226.94 M228.82 583.17 C304.62 494, 381.13 405.11, 538.48 226.94 M234.47 582.77 C324.1 478.52, 415.32 375.57, 538.22 233.34 M234.47 582.77 C322.76 480.97, 412.16 378.59, 538.22 233.34 M239.45 583.13 C340.25 467.95, 440.86 352.8, 538.62 238.98 M239.45 583.13 C300.28 511.84, 362.31 441.41, 538.62 238.98 M245.1 582.74 C350.89 463.8, 453.82 344.51, 538.35 245.38 M245.1 582.74 C326.55 490.4, 406.17 398.47, 538.35 245.38 M250.08 583.1 C350.96 467.06, 451.58 350.81, 538.09 251.78 M250.08 583.1 C340.12 480.25, 429.35 377.31, 538.09 251.78 M255.73 582.7 C330.82 497.06, 408.09 408.45, 538.49 257.42 M255.73 582.7 C357.29 467.68, 459.01 351.56, 538.49 257.42 M260.71 583.06 C359.35 469.91, 456.89 357.83, 538.23 263.82 M260.71 583.06 C363.93 465.01, 467.48 345.85, 538.23 263.82 M265.7 583.42 C330.56 511.34, 393.32 439.95, 538.62 269.46 M265.7 583.42 C351.87 485.85, 436.19 387.96, 538.62 269.46 M271.34 583.03 C335.11 509.74, 401.31 434.95, 538.36 275.86 M271.34 583.03 C327.74 517.92, 383.66 453.01, 538.36 275.86 M276.33 583.39 C365.13 479.59, 455.98 377.42, 538.1 282.26 M276.33 583.39 C354.89 493.6, 432.28 404.55, 538.1 282.26 M281.97 582.99 C338.05 519.55, 395.96 453.73, 538.49 287.9 M281.97 582.99 C343.63 514.32, 403.47 444.6, 538.49 287.9 M286.96 583.35 C342.28 522.81, 395.04 462.04, 538.23 294.3 M286.96 583.35 C353.56 507.97, 418.53 432.64, 538.23 294.3 M292.6 582.96 C342.68 524.66, 392.25 466.76, 538.63 299.94 M292.6 582.96 C350.35 515.55, 409.69 448.34, 538.63 299.94 M297.59 583.32 C383.09 485.42, 468.21 386.99, 538.36 306.34 M297.59 583.32 C382.37 484.4, 469.17 384.54, 538.36 306.34 M303.23 582.92 C353.32 529.1, 400.41 474.62, 538.1 312.74 M303.23 582.92 C355.31 522.77, 408.65 462.78, 538.1 312.74 M308.22 583.28 C397.54 481.89, 485.52 379.41, 538.5 318.38 M308.22 583.28 C384.34 497.13, 460.35 409.41, 538.5 318.38 M313.86 582.89 C392.02 495.11, 467.02 409.23, 538.24 324.78 M313.86 582.89 C396.54 488.86, 480.1 392.02, 538.24 324.78 M318.85 583.25 C369.53 525.15, 418.93 466.79, 538.63 330.42 M318.85 583.25 C384.72 504.59, 452.71 426.2, 538.63 330.42 M324.49 582.86 C376.45 521.43, 428.19 458.71, 538.37 336.82 M324.49 582.86 C381.47 516.44, 439.04 448.88, 538.37 336.82 M329.48 583.22 C397.77 505.93, 467.04 426.29, 538.11 343.22 M329.48 583.22 C378.41 529.77, 425 475.98, 538.11 343.22 M335.12 582.82 C386.33 521.41, 438.91 461.42, 538.5 348.86 M335.12 582.82 C394.55 515.25, 454.18 447.39, 538.5 348.86 M340.11 583.18 C382.68 536.06, 423.96 488.91, 538.24 355.26 M340.11 583.18 C418.33 491.95, 496.95 400.91, 538.24 355.26 M345.75 582.79 C388.85 536.18, 429.32 487.34, 538.64 360.9 M345.75 582.79 C386.64 537.42, 424.94 492.41, 538.64 360.9 M350.74 583.15 C410.91 513.14, 470.13 445.61, 538.37 367.3 M350.74 583.15 C413.93 507.86, 479.43 433.79, 538.37 367.3 M356.38 582.75 C407.47 526.74, 453.87 471.55, 538.11 373.7 M356.38 582.75 C425.96 504.08, 493.01 426.52, 538.11 373.7 M361.37 583.11 C401.64 538.29, 439.13 493.82, 538.51 379.34 M361.37 583.11 C429.61 504.7, 496.35 426.59, 538.51 379.34 M367.01 582.72 C412.72 530.66, 458.3 478.52, 538.25 385.74 M367.01 582.72 C428.3 512.69, 488.89 443.32, 538.25 385.74 M372 583.08 C431.11 513.78, 488.38 449.16, 538.64 391.38 M372 583.08 C405.69 542.4, 441.24 502.69, 538.64 391.38 M377.64 582.68 C436.27 512.61, 494.88 445.85, 538.38 397.78 M377.64 582.68 C425.46 525.62, 474.12 470.5, 538.38 397.78 M382.63 583.04 C426.21 531.63, 470.13 477.62, 538.12 404.18 M382.63 583.04 C433.52 524.21, 483.82 467.71, 538.12 404.18 M387.62 583.4 C425.21 537.75, 463.47 494.67, 538.51 409.82 M387.62 583.4 C442.24 520.81, 494.62 459.28, 538.51 409.82 M393.26 583.01 C435.7 533.15, 480.42 483.77, 538.25 416.22 M393.26 583.01 C423.03 549.38, 451.77 514.93, 538.25 416.22 M398.25 583.37 C437.81 539.22, 477.59 494.85, 538.64 421.86 M398.25 583.37 C434.84 541.69, 470.9 501.2, 538.64 421.86 M403.89 582.97 C450.19 526.54, 498.57 471.97, 538.38 428.26 M403.89 582.97 C452.7 528.13, 501.49 472.23, 538.38 428.26 M408.88 583.33 C451.8 531.78, 494.08 482.35, 538.12 434.66 M408.88 583.33 C451.31 534.32, 495.42 483.4, 538.12 434.66 M414.52 582.94 C456.97 531.95, 500.57 483.97, 538.52 440.3 M414.52 582.94 C447.36 546.65, 478.52 510.43, 538.52 440.3 M419.51 583.3 C468.38 526.62, 515.31 476.14, 538.25 446.7 M419.51 583.3 C457.05 539.5, 495.15 495.7, 538.25 446.7 M425.15 582.91 C452.04 548.49, 480.95 517.12, 538.65 452.34 M425.15 582.91 C464.39 535.07, 506.39 489.48, 538.65 452.34 M430.14 583.27 C467.02 540.74, 508.1 492.87, 538.39 458.74 M430.14 583.27 C463.9 543.89, 499.41 502.51, 538.39 458.74 M435.78 582.87 C475.31 538, 513.88 495.21, 538.13 465.14 M435.78 582.87 C471.6 541.07, 508.3 499.4, 538.13 465.14 M440.77 583.23 C462.77 556.57, 485.93 533.14, 538.52 470.78 M440.77 583.23 C468.11 552.6, 494.97 523.35, 538.52 470.78 M446.41 582.84 C473.1 549.44, 504.14 516.23, 538.26 477.18 M446.41 582.84 C473.44 553.14, 499.26 524.15, 538.26 477.18 M451.4 583.2 C478.39 551.55, 504.77 521.71, 538.65 482.82 M451.4 583.2 C474.92 557.54, 496.1 532.87, 538.65 482.82 M457.04 582.8 C486.29 547.93, 516.85 513.46, 538.39 489.22 M457.04 582.8 C473.8 562.22, 491.85 544.57, 538.39 489.22 M462.03 583.16 C491.72 548.41, 520.76 515.19, 538.13 495.62 M462.03 583.16 C491.69 548.72, 519.99 515.84, 538.13 495.62 M467.67 582.77 C493.46 553.71, 519.11 526.18, 538.53 501.26 M467.67 582.77 C494.41 553.19, 520.25 521.93, 538.53 501.26 M472.66 583.13 C485.52 567.78, 497.62 553.09, 538.26 507.66 M472.66 583.13 C494.66 556.15, 518.34 529.97, 538.26 507.66 M478.3 582.73 C503.5 555.65, 526.64 528.02, 538.66 513.3 M478.3 582.73 C492.94 566.85, 505.5 551.39, 538.66 513.3 M483.29 583.09 C503.46 558.47, 525.14 536.66, 538.4 519.7 M483.29 583.09 C496.28 567.99, 511.08 551.96, 538.4 519.7 M488.93 582.7 C505.37 562.14, 519.35 547.01, 538.14 526.1 M488.93 582.7 C507.77 560.96, 528.06 537.89, 538.14 526.1 M493.92 583.06 C505.23 568.98, 513.51 559.09, 538.53 531.74 M493.92 583.06 C510.2 565.4, 526.46 547.61, 538.53 531.74 M498.91 583.42 C507.47 573.48, 520.83 559.84, 538.27 538.14 M498.91 583.42 C511.04 570.53, 523.05 555.73, 538.27 538.14 M504.55 583.02 C512.06 574.81, 520.35 568.76, 538.66 543.78 M504.55 583.02 C517.03 568.95, 529.19 555.58, 538.66 543.78 M508.88 584.14 C517.36 573.54, 524.44 565.53, 538.4 550.18 M508.88 584.14 C521.18 571.73, 531.26 557.3, 538.4 550.18 M514.52 583.74 C521.91 575.68, 526.86 567.79, 541.42 552.8 M514.52 583.74 C522.48 574.9, 530.93 564.74, 541.42 552.8 M521.48 581.84 C526.79 576.31, 527.83 573.72, 536.57 564.48 M521.48 581.84 C525.39 576.47, 528.82 573.12, 536.57 564.48" stroke="#fab005" stroke-width="0.5" fill="none"></path><path d="M32 0 M32 0 C212.49 -1.32, 393.58 -1.35, 506.33 0 M32 0 C151.04 0.67, 270.6 0.7, 506.33 0 M506.33 0 C526.9 1.51, 536.4 8.85, 538.33 32 M506.33 0 C529.04 0.3, 540.38 11.52, 538.33 32 M538.33 32 C536.63 151.11, 535.77 271.84, 538.33 550.33 M538.33 32 C537.25 191.84, 537.39 350.99, 538.33 550.33 M538.33 550.33 C538.88 570.64, 528.67 581.12, 506.33 582.33 M538.33 550.33 C537.19 569.74, 527.55 583.19, 506.33 582.33 M506.33 582.33 C365.77 584.13, 224.03 584.13, 32 582.33 M506.33 582.33 C355.63 584.13, 205.79 583.93, 32 582.33 M32 582.33 C9.37 581.58, 0.16 572.19, 0 550.33 M32 582.33 C10.03 581.07, -0.12 573.91, 0 550.33 M0 550.33 C-0.42 370.87, 0.28 189.53, 0 32 M0 550.33 C0.59 433.33, 0.84 316.2, 0 32 M0 32 C0.25 9.85, 10.76 1.6, 32 0 M0 32 C0.43 8.7, 10.83 -0.56, 32 0" stroke="#000000" stroke-width="1" fill="none"></path></g><g stroke-opacity="0.8" fill-opacity="0.8" stroke-linecap="round" transform="translate(75.58333333333303 47) rotate(0 288.00000000000006 182)"><path d="M7.86 8.16 C7.86 8.16, 7.86 8.16, 7.86 8.16 M7.86 8.16 C7.86 8.16, 7.86 8.16, 7.86 8.16 M3.66 19.09 C9.22 15.87, 11.91 10.73, 18.1 2.48 M3.66 19.09 C8.74 12.31, 15.08 6.13, 18.1 2.48 M2.75 26.24 C9.6 16.75, 17.1 9.22, 24.4 1.33 M2.75 26.24 C9.33 18.05, 17.01 9.4, 24.4 1.33 M1.83 33.39 C8.51 22.62, 18.42 16.05, 30.7 0.18 M1.83 33.39 C12.75 22.19, 22.55 10.63, 30.7 0.18 M1.57 39.79 C13.7 26.12, 25.21 11.45, 34.37 2.05 M1.57 39.79 C12.94 27, 23.92 14.06, 34.37 2.05 M1.96 45.43 C15.5 32.75, 25.42 18.9, 39.36 2.41 M1.96 45.43 C12.52 33.38, 21.87 22.51, 39.36 2.41 M1.7 51.83 C17.9 32.72, 34.14 17.96, 45 2.02 M1.7 51.83 C19.2 31.39, 35.27 13.19, 45 2.02 M1.44 58.23 C14.35 42.32, 28.74 28.98, 49.99 2.38 M1.44 58.23 C20.88 37.69, 39.02 15.74, 49.99 2.38 M1.83 63.87 C14.56 50.17, 29.17 34.89, 55.63 1.98 M1.83 63.87 C13.72 50.07, 25.24 36.58, 55.63 1.98 M1.57 70.27 C22.84 48.2, 44.17 24.81, 60.62 2.34 M1.57 70.27 C24.81 42.89, 47.66 17.07, 60.62 2.34 M1.97 75.91 C25.32 51.55, 44.19 25.55, 66.26 1.95 M1.97 75.91 C23.05 50.95, 43.65 26.51, 66.26 1.95 M1.71 82.31 C19.85 61.37, 39.91 39.56, 71.25 2.31 M1.71 82.31 C26.22 54.5, 50.57 26.57, 71.25 2.31 M1.44 88.71 C21.97 66.8, 44.31 42.88, 76.89 1.91 M1.44 88.71 C16.47 68.22, 33.25 49.47, 76.89 1.91 M1.84 94.35 C20.76 73.65, 36.64 54.97, 81.88 2.27 M1.84 94.35 C23.89 69.33, 45.04 43.82, 81.88 2.27 M1.58 100.75 C28.84 69.11, 58.56 33.19, 87.52 1.88 M1.58 100.75 C36.09 61.94, 71.1 22.74, 87.52 1.88 M1.97 106.39 C33.34 69.53, 63.9 36.89, 92.51 2.24 M1.97 106.39 C22.02 84.08, 43.17 60.6, 92.51 2.24 M1.71 112.79 C35.52 71.64, 71.67 33.4, 98.15 1.85 M1.71 112.79 C34.23 74.97, 66.87 37.42, 98.15 1.85 M1.45 119.19 C26.21 88.33, 55.4 57.46, 103.14 2.21 M1.45 119.19 C26.47 92.25, 50.01 64.09, 103.14 2.21 M1.84 124.83 C34.66 91.99, 63.11 56.6, 108.78 1.81 M1.84 124.83 C36.12 83.23, 72.35 40.94, 108.78 1.81 M1.58 131.23 C33.75 96.58, 65.2 56.01, 113.77 2.17 M1.58 131.23 C38.59 88.39, 74.46 46.04, 113.77 2.17 M1.98 136.87 C41.4 90.71, 83.81 44.88, 119.41 1.78 M1.98 136.87 C32.37 102.84, 62.82 68.2, 119.41 1.78 M1.72 143.27 C35.83 102.54, 70.97 66.37, 124.4 2.14 M1.72 143.27 C45.87 94.56, 87.86 44.97, 124.4 2.14 M1.45 149.67 C32.38 111.63, 65.09 76.75, 130.04 1.74 M1.45 149.67 C47.36 95.7, 94.73 41.68, 130.04 1.74 M1.85 155.31 C51.62 97.78, 103.27 38.93, 135.03 2.1 M1.85 155.31 C40.01 113.83, 77.93 69.64, 135.03 2.1 M1.59 161.71 C42.54 115.41, 83.24 71.63, 140.67 1.71 M1.59 161.71 C48.71 106.46, 96.29 52.95, 140.67 1.71 M1.98 167.35 C37.21 128.59, 69.52 89.21, 145.66 2.07 M1.98 167.35 C52.8 107.22, 103.32 49.25, 145.66 2.07 M1.72 173.75 C62.31 106.03, 117.8 39.47, 150.65 2.43 M1.72 173.75 C34.6 136.1, 67.77 98.19, 150.65 2.43 M1.46 180.14 C63.46 110.31, 123.9 37.82, 156.29 2.03 M1.46 180.14 C58.24 115.38, 116.47 49.51, 156.29 2.03 M1.85 185.79 C38.54 145.39, 74.05 102.5, 161.28 2.39 M1.85 185.79 C46.58 135.85, 89.9 85.13, 161.28 2.39 M1.59 192.19 C58.5 125.24, 113.31 60.87, 166.92 2 M1.59 192.19 C53.68 131.96, 107.42 71.41, 166.92 2 M1.99 197.83 C63.11 126.27, 124.18 53.91, 171.91 2.36 M1.99 197.83 C58.76 133.56, 115.08 69.4, 171.91 2.36 M1.72 204.23 C41.19 157.22, 80.77 111.99, 177.55 1.96 M1.72 204.23 C35.99 164.18, 72.12 123.2, 177.55 1.96 M1.46 210.62 C51.27 152.87, 100.8 97.34, 182.54 2.32 M1.46 210.62 C45.68 159.3, 88.89 110.6, 182.54 2.32 M1.86 216.27 C67.21 141.31, 129.69 68.77, 188.18 1.93 M1.86 216.27 C39.2 173.85, 77.41 131.82, 188.18 1.93 M1.6 222.66 C63.78 152.36, 126 80.29, 193.17 2.29 M1.6 222.66 C44.6 171.34, 87.56 121.88, 193.17 2.29 M1.99 228.31 C51.54 171.16, 103.95 111.2, 198.81 1.9 M1.99 228.31 C58.65 162.71, 115.57 97.15, 198.81 1.9 M1.73 234.71 C46.18 183.49, 89.45 136.09, 203.8 2.26 M1.73 234.71 C67.11 160.34, 131.87 86.17, 203.8 2.26 M1.47 241.1 C52.98 177.82, 108.37 116.77, 209.44 1.86 M1.47 241.1 C54.79 181.57, 106.52 122.79, 209.44 1.86 M1.86 246.75 C70.94 167.73, 141.29 85.94, 214.43 2.22 M1.86 246.75 C72.85 165.79, 144.71 83.13, 214.43 2.22 M1.6 253.14 C77.36 164.99, 154.5 78.25, 220.07 1.83 M1.6 253.14 C54.39 193.47, 106.29 134.45, 220.07 1.83 M2 258.79 C82.56 162.59, 165.37 69.03, 225.06 2.19 M2 258.79 C68.3 183.38, 134.36 108.95, 225.06 2.19 M1.73 265.19 C55.05 204.03, 108.17 142.4, 230.7 1.79 M1.73 265.19 C50.76 209.25, 100.78 151.3, 230.7 1.79 M1.47 271.58 C79.91 181.14, 159.06 89.89, 235.69 2.15 M1.47 271.58 C95.58 166.49, 186.78 60.52, 235.69 2.15 M1.87 277.23 C76.11 191.9, 148.61 106.72, 241.33 1.76 M1.87 277.23 C84.09 180.79, 167.23 86.25, 241.33 1.76 M1.61 283.62 C86.49 187.96, 169.83 91.53, 246.32 2.12 M1.61 283.62 C60.35 216.2, 119.14 147.74, 246.32 2.12 M2 289.27 C75.14 207.21, 148.33 122.2, 251.96 1.72 M2 289.27 C95.61 183.61, 187.58 78.71, 251.96 1.72 M1.74 295.66 C52.05 236.13, 104.2 177.45, 256.95 2.08 M1.74 295.66 C61.08 227.23, 119.93 159.61, 256.95 2.08 M1.48 302.06 C53.08 240.97, 106.61 179.23, 262.59 1.69 M1.48 302.06 C60.15 236.31, 118.62 167.99, 262.59 1.69 M1.87 307.71 C64.32 236.68, 126.16 163.83, 267.58 2.05 M1.87 307.71 C92.48 201.88, 183.85 96.74, 267.58 2.05 M1.61 314.1 C102.81 199.74, 200.79 85.4, 272.56 2.41 M1.61 314.1 C69.67 236.89, 137.85 159.18, 272.56 2.41 M2.01 319.75 C77.71 229.28, 155.09 139.14, 278.21 2.01 M2.01 319.75 C106.49 201.5, 208.82 83.85, 278.21 2.01 M1.74 326.14 C63.65 257.04, 126.13 185.96, 283.19 2.37 M1.74 326.14 C106.55 204.59, 212.7 82.67, 283.19 2.37 M0.83 333.3 C78.99 244.01, 155.04 156.94, 288.84 1.98 M0.83 333.3 C83.58 238.51, 165.63 144.2, 288.84 1.98 M1.88 338.19 C86.28 240.96, 170.68 141.69, 293.82 2.34 M1.88 338.19 C97.87 229, 192.61 119.46, 293.82 2.34 M2.93 343.07 C71.76 263.92, 140.79 182.24, 299.47 1.94 M2.93 343.07 C77.19 256.02, 152.06 170.46, 299.47 1.94 M3.98 347.96 C73.58 266.84, 143.48 185.53, 304.45 2.3 M3.98 347.96 C67.76 276.15, 131.18 203.4, 304.45 2.3 M5.69 352.1 C106.07 232.83, 207.49 117.17, 310.1 1.91 M5.69 352.1 C78.14 269.97, 150.11 187.48, 310.1 1.91 M8.05 355.47 C129.54 215.26, 251.85 73.55, 315.08 2.27 M8.05 355.47 C111.97 235.67, 216.92 114.98, 315.08 2.27 M11.07 358.1 C78.98 278.29, 146.62 199.82, 320.73 1.88 M11.07 358.1 C133.81 217.47, 257.48 75.49, 320.73 1.88 M14.09 360.72 C87.67 275.68, 162.36 191.19, 325.71 2.24 M14.09 360.72 C83.66 280.82, 153.75 199.17, 325.71 2.24 M18.42 361.84 C97 271.93, 176.44 181.32, 331.36 1.84 M18.42 361.84 C108.77 258.06, 198.16 155.24, 331.36 1.84 M22.09 363.71 C122.6 248.46, 222.15 133.57, 336.34 2.2 M22.09 363.71 C134.8 235.01, 247.55 104.83, 336.34 2.2 M26.42 364.82 C119.5 258.96, 210.58 153.78, 341.99 1.81 M26.42 364.82 C104.14 276.3, 181.44 187.74, 341.99 1.81 M32.07 364.43 C129.04 253.03, 227.47 141.49, 346.97 2.17 M32.07 364.43 C107.61 278.65, 180.95 193.86, 346.97 2.17 M37.71 364.03 C138.22 249.54, 238.08 135.44, 352.62 1.77 M37.71 364.03 C105.79 286.41, 172.64 209.61, 352.62 1.77 M42.7 364.39 C164.17 225.17, 286.52 86.57, 357.6 2.13 M42.7 364.39 C148.71 242.2, 254.54 121.3, 357.6 2.13 M48.34 364 C114.61 289.83, 179.69 215.65, 363.25 1.74 M48.34 364 C150.79 248.71, 251.29 132.07, 363.25 1.74 M53.33 364.36 C123.79 280.9, 195.87 197.76, 368.23 2.1 M53.33 364.36 C158.51 241.06, 265.51 119, 368.23 2.1 M58.97 363.96 C168.04 237.46, 275.75 113.34, 373.88 1.7 M58.97 363.96 C150.13 256.04, 243.47 149.17, 373.88 1.7 M63.96 364.32 C134.29 282.34, 204.92 199.71, 378.86 2.06 M63.96 364.32 C163.41 248.31, 264.3 132.34, 378.86 2.06 M69.6 363.93 C140.44 282.94, 209.42 200.55, 383.85 2.42 M69.6 363.93 C149.81 271.94, 230.77 179.55, 383.85 2.42 M74.59 364.29 C162.07 264.21, 249.28 163.34, 389.49 2.03 M74.59 364.29 C182.97 240.37, 290.8 115.78, 389.49 2.03 M80.23 363.89 C156.44 276.07, 232.43 190.22, 394.48 2.39 M80.23 363.89 C180.26 249.24, 279.4 134.59, 394.48 2.39 M85.22 364.26 C203.91 227.97, 324.95 89.54, 400.12 1.99 M85.22 364.26 C170.25 266.53, 256.06 167.08, 400.12 1.99 M90.86 363.86 C185.09 254.15, 279.78 146.58, 405.11 2.35 M90.86 363.86 C209.29 226.8, 329.37 88.67, 405.11 2.35 M95.85 364.22 C172.12 275.47, 247.49 187.75, 410.75 1.96 M95.85 364.22 C208.27 234.53, 321.57 104.95, 410.75 1.96 M100.83 364.58 C167.19 289.46, 232.58 212.68, 415.74 2.32 M100.83 364.58 C213.03 237.03, 324.83 108.86, 415.74 2.32 M106.48 364.19 C194.86 264.85, 281.12 164.38, 421.38 1.93 M106.48 364.19 C183.37 273.51, 261.28 183.94, 421.38 1.93 M111.46 364.55 C202.49 261.67, 293.1 156.4, 426.37 2.29 M111.46 364.55 C215.96 246.35, 319.36 127.91, 426.37 2.29 M117.11 364.15 C243.45 219.19, 369.05 73.13, 432.01 1.89 M117.11 364.15 C238.85 224.26, 359.52 86.18, 432.01 1.89 M122.09 364.51 C233.99 234.8, 348.54 104.64, 437 2.25 M122.09 364.51 C246.78 223.02, 369.53 81.75, 437 2.25 M127.74 364.12 C203.02 277.4, 279.28 188.17, 442.64 1.86 M127.74 364.12 C192.26 292.01, 255.36 219.3, 442.64 1.86 M132.72 364.48 C243.84 236.06, 355.04 109.21, 447.63 2.22 M132.72 364.48 C204.6 283.88, 275.03 202.35, 447.63 2.22 M138.37 364.08 C244.45 242.33, 349.21 119.35, 453.27 1.82 M138.37 364.08 C241.28 245.28, 343.95 126.1, 453.27 1.82 M143.35 364.44 C239.37 257.36, 332.56 148.13, 458.26 2.18 M143.35 364.44 C240.38 252.88, 336.52 142.1, 458.26 2.18 M149 364.05 C250.29 249.3, 349.92 134.48, 463.9 1.79 M149 364.05 C271.77 225.23, 393.47 85.68, 463.9 1.79 M153.98 364.41 C261.4 239.94, 369.75 115.48, 468.89 2.15 M153.98 364.41 C250.03 255.1, 345.67 144.89, 468.89 2.15 M159.63 364.01 C262.9 244.95, 368.25 124.1, 474.53 1.75 M159.63 364.01 C285.24 219.53, 409.14 77.52, 474.53 1.75 M164.61 364.37 C271.17 244.56, 376.28 124.32, 479.52 2.11 M164.61 364.37 C252.21 264.02, 340.05 162.06, 479.52 2.11 M170.26 363.98 C243.62 281.34, 314.07 199.24, 485.17 1.72 M170.26 363.98 C284.58 232.65, 398.19 101.95, 485.17 1.72 M175.24 364.34 C244.26 283.78, 314.77 204.52, 490.15 2.08 M175.24 364.34 C268.36 258.16, 360.65 151.43, 490.15 2.08 M180.89 363.94 C296.6 230.81, 411.61 99.17, 495.8 1.68 M180.89 363.94 C272.08 259.78, 363.56 154.82, 495.8 1.68 M185.87 364.3 C270.52 265.17, 355.09 168.22, 500.78 2.04 M185.87 364.3 C310.81 221.96, 434.76 78.97, 500.78 2.04 M191.52 363.91 C256.27 289.37, 323.36 214.18, 505.77 2.4 M191.52 363.91 C309.27 225.09, 429.06 87.65, 505.77 2.4 M196.5 364.27 C274.24 276.58, 349.57 188.52, 511.41 2.01 M196.5 364.27 C268.69 281.62, 340.3 198.74, 511.41 2.01 M202.15 363.88 C304.04 246.88, 405.8 130.8, 516.4 2.37 M202.15 363.88 C271.3 285.27, 340.32 205.68, 516.4 2.37 M207.13 364.24 C275.14 287.98, 342.39 209.63, 522.04 1.98 M207.13 364.24 C277.61 279.6, 349.87 196.95, 522.04 1.98 M212.78 363.84 C336.25 222.9, 459.05 80.59, 527.03 2.34 M212.78 363.84 C338.12 220.15, 463.87 76.07, 527.03 2.34 M217.76 364.2 C334.14 232.29, 448.88 100.25, 532.67 1.94 M217.76 364.2 C291.35 278.74, 365.06 193.79, 532.67 1.94 M222.75 364.56 C343.93 221.75, 467.73 80.72, 537.66 2.3 M222.75 364.56 C314.01 258.8, 405.79 152.56, 537.66 2.3 M228.39 364.17 C347.78 227.38, 466.8 90.59, 544.61 0.4 M228.39 364.17 C313.22 267.06, 397.51 170.92, 544.61 0.4 M233.38 364.53 C299.81 290.18, 366.34 214.98, 549.6 0.76 M233.38 364.53 C319.74 264.51, 405.96 165.89, 549.6 0.76 M239.02 364.13 C316.35 274.95, 393.65 186.23, 553.28 2.63 M239.02 364.13 C346.09 240.2, 453.95 115.71, 553.28 2.63 M244.01 364.49 C320.66 277.9, 395.71 190.92, 557.61 3.74 M244.01 364.49 C339.5 254.72, 435.33 143.96, 557.61 3.74 M249.65 364.1 C331.89 268.29, 414.59 173.46, 561.94 4.86 M249.65 364.1 C337.12 261.52, 425.3 160.59, 561.94 4.86 M254.64 364.46 C374.04 224.5, 496.61 83.48, 565.61 6.73 M254.64 364.46 C367.04 236.1, 477.97 109, 565.61 6.73 M260.28 364.06 C333.77 281.1, 406.6 196.41, 568.63 9.35 M260.28 364.06 C349.21 263.71, 437.94 161.34, 568.63 9.35 M265.27 364.42 C346.22 271.73, 426.38 178.69, 571.65 11.97 M265.27 364.42 C380.63 231.07, 494.76 99.35, 571.65 11.97 M270.91 364.03 C354.85 268.17, 440.28 169.15, 574.67 14.6 M270.91 364.03 C380.26 237.41, 489.5 111.33, 574.67 14.6 M275.9 364.39 C386.14 237.52, 498.55 108.34, 575.72 19.49 M275.9 364.39 C366.04 257.95, 458.2 151.34, 575.72 19.49 M281.54 363.99 C340.32 294.6, 400.59 226.07, 576.77 24.37 M281.54 363.99 C368.31 265.45, 454.43 165.36, 576.77 24.37 M286.53 364.35 C383.48 252.66, 479.72 140.47, 577.17 30.02 M286.53 364.35 C373.27 265.13, 459.84 166.16, 577.17 30.02 M292.17 363.96 C387.06 255.82, 482.48 144.75, 578.87 34.15 M292.17 363.96 C373.59 271.69, 453.36 178.78, 578.87 34.15 M297.16 364.32 C376.97 273.13, 455.2 180.81, 578.61 40.55 M297.16 364.32 C375.75 273.11, 454.53 182.54, 578.61 40.55 M302.8 363.93 C384.54 269.81, 466.14 175.14, 579.01 46.19 M302.8 363.93 C384.83 270.51, 467.1 175.77, 579.01 46.19 M307.79 364.29 C372.5 288.22, 438.86 214.24, 578.74 52.59 M307.79 364.29 C410 243.56, 513.96 124.49, 578.74 52.59 M313.43 363.89 C374.75 294.29, 434.68 224.14, 578.48 58.99 M313.43 363.89 C398.36 265.1, 483.65 166.59, 578.48 58.99 M318.42 364.25 C409.59 259, 500.56 151.44, 578.88 64.63 M318.42 364.25 C402.19 264.54, 487.95 165.39, 578.88 64.63 M324.07 363.86 C420.07 252.56, 515.34 141.23, 578.62 71.03 M324.07 363.86 C406.71 268.08, 489.92 173.66, 578.62 71.03 M329.05 364.22 C396.4 289.53, 462.35 212.66, 579.01 76.67 M329.05 364.22 C389.25 295.76, 447.78 227.36, 579.01 76.67 M334.04 364.58 C402.38 286.36, 470.45 208.29, 578.75 83.07 M334.04 364.58 C398.68 287.81, 463.95 212.39, 578.75 83.07 M339.68 364.18 C415.51 277.01, 491.01 188.9, 578.49 89.47 M339.68 364.18 C388.84 305.48, 439.05 247.63, 578.49 89.47 M344.67 364.54 C438.28 257.11, 529.53 150.11, 578.88 95.11 M344.67 364.54 C415.92 281.65, 489.04 198.39, 578.88 95.11 M350.31 364.15 C436.21 264.7, 522.1 165.73, 578.62 101.51 M350.31 364.15 C432.44 268.21, 515.49 173.7, 578.62 101.51 M355.3 364.51 C420.62 291.8, 485.49 214.85, 579.02 107.15 M355.3 364.51 C445.01 262.67, 533.98 160.63, 579.02 107.15 M360.94 364.11 C409.54 310.38, 453.26 257.52, 578.75 113.55 M360.94 364.11 C444.45 268.03, 526.55 172.34, 578.75 113.55 M365.93 364.47 C414.12 311, 461.46 258.73, 578.49 119.95 M365.93 364.47 C426.03 296.73, 484.96 228.15, 578.49 119.95 M371.57 364.08 C430.12 297.65, 487.61 229.59, 578.89 125.59 M371.57 364.08 C446.82 278.55, 521.57 191.2, 578.89 125.59 M376.56 364.44 C450.5 280.61, 522.56 196.03, 578.63 131.99 M376.56 364.44 C434.37 296.87, 492.68 229.79, 578.63 131.99 M382.2 364.04 C452.57 281.25, 523.77 201.45, 579.02 137.63 M382.2 364.04 C459.89 274.78, 538.13 185.27, 579.02 137.63 M387.19 364.4 C463.42 276.26, 539.47 187.45, 578.76 144.03 M387.19 364.4 C458.71 282.84, 528.24 202.35, 578.76 144.03 M392.83 364.01 C456.72 291.11, 520.01 217.02, 578.5 150.43 M392.83 364.01 C459.01 289.17, 523.36 215.62, 578.5 150.43 M397.82 364.37 C453.99 302.4, 510.96 237.76, 578.89 156.07 M397.82 364.37 C439.04 315.35, 481.31 268.75, 578.89 156.07 M403.46 363.97 C437.85 323.32, 474.55 281.74, 578.63 162.47 M403.46 363.97 C456.01 302.79, 509.64 239.86, 578.63 162.47 M408.45 364.33 C474.35 288.19, 542.4 212.62, 579.03 168.11 M408.45 364.33 C476.21 286.03, 544.72 207.78, 579.03 168.11 M414.09 363.94 C453.88 316.02, 495.35 270.76, 578.76 174.51 M414.09 363.94 C469.39 301.67, 522.11 240.07, 578.76 174.51 M419.08 364.3 C455.95 322.36, 491.67 278.99, 578.5 180.91 M419.08 364.3 C480.73 291.73, 542.35 220.34, 578.5 180.91 M424.72 363.91 C464.88 315.22, 507.35 268.15, 578.9 186.55 M424.72 363.91 C466.66 316.82, 508.44 267.09, 578.9 186.55 M429.71 364.27 C482.53 306.32, 534.96 243.84, 578.64 192.95 M429.71 364.27 C476.83 310.83, 523.73 257.46, 578.64 192.95 M435.35 363.87 C489.81 301.01, 543.18 242.03, 578.37 199.34 M435.35 363.87 C491.03 299.07, 547.73 234.7, 578.37 199.34 M440.34 364.23 C486.89 308.82, 535.46 252.76, 578.77 204.99 M440.34 364.23 C475.68 322.69, 512.44 281.68, 578.77 204.99 M445.33 364.59 C494.03 306.37, 546.17 248.94, 578.51 211.39 M445.33 364.59 C492.12 311.46, 538.39 257.67, 578.51 211.39 M450.97 364.2 C494.85 316.41, 540.95 265.14, 578.9 217.03 M450.97 364.2 C493.84 316.35, 535.86 267.19, 578.9 217.03 M455.96 364.56 C480.74 335.46, 506.39 304.3, 578.64 223.43 M455.96 364.56 C500.68 311.35, 546.11 259.84, 578.64 223.43 M461.6 364.16 C500.97 317.18, 543.98 267.41, 578.38 229.82 M461.6 364.16 C487.14 334.01, 510.63 306.6, 578.38 229.82 M466.59 364.52 C498.98 325.89, 531.63 291.45, 578.77 235.47 M466.59 364.52 C500.32 326.86, 532.88 289.86, 578.77 235.47 M472.23 364.13 C505.56 324.47, 540.73 287.16, 578.51 241.87 M472.23 364.13 C512.05 317.28, 552.7 269.01, 578.51 241.87 M477.22 364.49 C511.95 324.81, 543.85 285.28, 578.91 247.51 M477.22 364.49 C511.76 323.27, 546.45 283.44, 578.91 247.51 M482.86 364.09 C510.16 334.89, 533.07 304.95, 578.64 253.91 M482.86 364.09 C514.16 326.93, 545.71 291.61, 578.64 253.91 M487.85 364.45 C506.1 341.86, 524.89 323.19, 578.38 260.3 M487.85 364.45 C519.29 328.02, 551.27 290.47, 578.38 260.3 M493.49 364.06 C519.84 331.67, 550.23 298.99, 578.78 265.95 M493.49 364.06 C521.73 333.26, 547.92 301.69, 578.78 265.95 M498.48 364.42 C516.29 340.86, 537.01 321.54, 578.52 272.34 M498.48 364.42 C523.34 335.13, 549.7 304.04, 578.52 272.34 M504.12 364.02 C530.49 329.23, 560.3 298.78, 578.91 277.99 M504.12 364.02 C533.27 328.71, 563.06 295.41, 578.91 277.99 M509.11 364.38 C527.9 341.4, 547.49 321.33, 578.65 284.39 M509.11 364.38 C528.83 341.15, 550.81 317.85, 578.65 284.39 M514.75 363.99 C536.1 339.56, 558.51 312.43, 578.39 290.78 M514.75 363.99 C530.26 345.73, 544.92 328.22, 578.39 290.78 M519.74 364.35 C537.81 347.14, 551.87 325.03, 578.78 296.43 M519.74 364.35 C532.81 347.94, 547.17 333.61, 578.78 296.43 M525.38 363.96 C540.11 344.74, 557.88 324.54, 578.52 302.82 M525.38 363.96 C541.33 345.65, 556 328.28, 578.52 302.82 M530.37 364.32 C546.92 346.1, 560.66 327.41, 578.92 308.47 M530.37 364.32 C548.63 343.5, 564.96 324.48, 578.92 308.47 M536.01 363.92 C547.07 354.39, 553.23 343.63, 578.65 314.86 M536.01 363.92 C551.82 344.7, 569.86 325.09, 578.65 314.86 M541 364.28 C555.5 349.96, 569.3 330.38, 578.39 321.26 M541 364.28 C550.65 353.85, 561.77 341.97, 578.39 321.26 M545.33 365.4 C557.2 353.05, 571.05 339.4, 578.79 326.91 M545.33 365.4 C558.49 350.48, 570.63 335.37, 578.79 326.91 M551.63 364.25 C557.61 353.89, 566.23 348.17, 577.87 334.06 M551.63 364.25 C559.54 354.82, 568.84 344.14, 577.87 334.06 M558.58 362.34 C564.19 355.06, 569.92 349.08, 576.95 341.21 M558.58 362.34 C563.26 355.51, 569.46 349.68, 576.95 341.21" stroke="#82c91e" stroke-width="0.5" fill="none"></path><path d="M32 0 M32 0 C174.83 0.47, 316.24 0.18, 544 0 M32 0 C192.62 -0.61, 353.67 -0.31, 544 0 M544 0 C566.19 -1.96, 575.87 8.73, 576 32 M544 0 C563.14 1.51, 576.46 12.62, 576 32 M576 32 C579.07 91.86, 578.95 152.08, 576 332 M576 32 C577.49 117.7, 576.08 203.49, 576 332 M576 332 C574.09 355.07, 564.68 362.69, 544 364 M576 332 C575.17 355.46, 564.44 362.85, 544 364 M544 364 C386.51 363, 228.19 362.33, 32 364 M544 364 C407.45 362.82, 270.65 362.57, 32 364 M32 364 C10.04 365.68, 0.64 352.45, 0 332 M32 364 C12.82 361.71, -1.59 351.41, 0 332 M0 332 C0.86 253.2, 0.95 173.68, 0 32 M0 332 C0.75 225.02, 0.54 119.01, 0 32 M0 32 C1.04 11.47, 11.03 1.36, 32 0 M0 32 C-2.29 10.3, 12.38 -2.11, 32 0" stroke="#000000" stroke-width="1" fill="none"></path></g><g stroke-opacity="0.7" fill-opacity="0.7" stroke-linecap="round" transform="translate(131.58333333333337 550.6666666666663) rotate(0 75.16666666666697 28.000000000000284)"><path d="M3.73 3.24 C3.73 3.24, 3.73 3.24, 3.73 3.24 M3.73 3.24 C3.73 3.24, 3.73 3.24, 3.73 3.24 M1.5 11.9 C4.12 7.54, 7.29 3.68, 10.03 2.09 M1.5 11.9 C3.26 9.34, 4.52 7.34, 10.03 2.09 M1.24 18.3 C4.99 14.43, 10.66 8.55, 15.67 1.7 M1.24 18.3 C6.02 12.87, 9.99 7.88, 15.67 1.7 M1.63 23.94 C5.65 17.4, 9.09 13.99, 21.31 1.3 M1.63 23.94 C9.68 14.13, 16.94 5.68, 21.31 1.3 M1.37 30.34 C5.73 24.89, 9.79 20.51, 26.3 1.66 M1.37 30.34 C10.89 20.14, 19.38 9.72, 26.3 1.66 M1.76 35.98 C10.95 26.36, 19.86 15.69, 31.29 2.02 M1.76 35.98 C8.74 28.58, 15.22 19.99, 31.29 2.02 M1.5 42.38 C13.9 25.56, 27.89 11.56, 36.93 1.63 M1.5 42.38 C9.31 33.8, 15.61 25.93, 36.93 1.63 M2.55 47.27 C16.88 33.48, 26.46 17.27, 41.92 1.99 M2.55 47.27 C15.95 32.6, 28.88 18.24, 41.92 1.99 M4.26 51.4 C17.39 34.81, 30.97 22.93, 47.56 1.59 M4.26 51.4 C17.86 34.46, 33.33 19.57, 47.56 1.59 M6.62 54.78 C18.73 42.09, 27.97 30.1, 52.55 1.95 M6.62 54.78 C17.81 41.3, 28.59 30.19, 52.55 1.95 M10.3 56.65 C20.37 42.7, 30.63 31.69, 58.19 1.56 M10.3 56.65 C21.9 42.94, 31.13 31.32, 58.19 1.56 M15.28 57.01 C31.74 37.29, 51.02 16.78, 63.18 1.92 M15.28 57.01 C32.81 35.43, 52.94 14.25, 63.18 1.92 M20.27 57.37 C34.28 40.46, 46.09 27, 68.16 2.28 M20.27 57.37 C38.72 36.88, 54.54 16.2, 68.16 2.28 M25.91 56.98 C36.8 47.55, 44.16 36.43, 73.81 1.88 M25.91 56.98 C43.06 37.19, 59.59 18.64, 73.81 1.88 M30.9 57.34 C42.01 43.01, 53.77 30.77, 78.79 2.24 M30.9 57.34 C45.15 40.37, 59.14 25.03, 78.79 2.24 M36.54 56.94 C48.85 41.87, 60.66 26.95, 84.44 1.85 M36.54 56.94 C51.89 38.68, 70.24 17.66, 84.44 1.85 M41.53 57.3 C52.83 42.08, 65.87 29.64, 89.42 2.21 M41.53 57.3 C54.04 42.94, 66.88 28.9, 89.42 2.21 M47.17 56.91 C61.43 42.92, 73.31 24.88, 95.07 1.81 M47.17 56.91 C65.55 36.93, 81.03 17.25, 95.07 1.81 M52.16 57.27 C66.49 41.82, 79.23 26.06, 100.05 2.17 M52.16 57.27 C62.59 43.95, 73.99 30.91, 100.05 2.17 M57.15 57.63 C73.63 41.24, 87.33 20.99, 105.04 2.53 M57.15 57.63 C69.62 43.53, 80.93 29.08, 105.04 2.53 M62.79 57.23 C75.31 40.72, 90.94 25.14, 110.68 2.14 M62.79 57.23 C75.29 41.46, 89.07 26.99, 110.68 2.14 M67.78 57.59 C81.48 41.39, 94.95 27.35, 115.67 2.5 M67.78 57.59 C87.17 36.31, 106.62 13.15, 115.67 2.5 M73.42 57.2 C90.02 39.46, 105.77 19.49, 121.31 2.11 M73.42 57.2 C92.09 37.32, 109.7 16.05, 121.31 2.11 M78.41 57.56 C92.75 40.52, 105.47 26, 126.3 2.47 M78.41 57.56 C90.24 42.19, 103.01 27.8, 126.3 2.47 M84.05 57.16 C95.83 44.04, 107.56 29.46, 131.94 2.07 M84.05 57.16 C94.63 44.06, 105.09 33.84, 131.94 2.07 M89.04 57.52 C104.01 39.11, 120.67 18.64, 136.93 2.43 M89.04 57.52 C102.24 44.04, 113.72 29.4, 136.93 2.43 M94.03 57.88 C110.57 39.95, 125.56 21.68, 143.23 1.28 M94.03 57.88 C112 35.86, 129.75 15.31, 143.23 1.28 M99.67 57.49 C116.75 37.34, 133.14 18.32, 146.9 3.15 M99.67 57.49 C111.23 43.47, 123.23 30.45, 146.9 3.15 M104.66 57.85 C113.46 44.2, 127.17 34.31, 149.92 5.78 M104.66 57.85 C120.84 39.91, 136.57 21.88, 149.92 5.78 M110.3 57.46 C121.54 46.52, 127.42 38.47, 150.32 11.42 M110.3 57.46 C119.58 46.3, 130.18 35.21, 150.32 11.42 M115.29 57.82 C129.34 43.75, 138.44 29.99, 150.71 17.06 M115.29 57.82 C127.99 44.35, 138.79 30.36, 150.71 17.06 M120.93 57.42 C130.19 46.53, 140.62 33.7, 150.45 23.46 M120.93 57.42 C130.78 44.74, 141.71 34.19, 150.45 23.46 M125.92 57.78 C134.97 48.28, 144.03 39.25, 150.19 29.86 M125.92 57.78 C132.31 51.65, 137.05 44.07, 150.19 29.86 M130.9 58.14 C136.92 53.44, 142.14 46.65, 149.93 36.25 M130.9 58.14 C138.3 49.73, 144.89 42.15, 149.93 36.25 M137.2 56.99 C140.14 52.84, 146.49 46.58, 150.32 41.9 M137.2 56.99 C140.23 53.25, 144.33 47.54, 150.32 41.9" stroke="#82c91e" stroke-width="0.5" fill="none"></path><path d="M14 0 M14 0 C53.61 -1.94, 94.68 -0.88, 136.33 0 M14 0 C40.17 -0.45, 68.3 0.08, 136.33 0 M136.33 0 C143.82 -0.32, 150.79 5.47, 150.33 14 M136.33 0 C143.88 1, 151.42 2.47, 150.33 14 M150.33 14 C150.11 20.33, 149.6 28.87, 150.33 42 M150.33 14 C151.42 23.63, 151.5 34.66, 150.33 42 M150.33 42 C152.21 51.27, 144.18 56.98, 136.33 56 M150.33 42 C152.37 53.12, 144.67 56.94, 136.33 56 M136.33 56 C102.07 53.94, 66.72 57.27, 14 56 M136.33 56 C107.69 57.8, 79.79 57.03, 14 56 M14 56 C4.29 54.27, -0.88 52.06, 0 42 M14 56 C5.5 54.38, 0.97 53.36, 0 42 M0 42 C-0.6 34.3, 0.33 25.21, 0 14 M0 42 C-0.95 33.77, 0.02 27.27, 0 14 M0 14 C-1.02 2.95, 4.38 0.37, 14 0 M0 14 C-0.74 5.08, 6.36 0.67, 14 0" stroke="#000000" stroke-width="1" fill="none"></path></g><g transform="translate(98.58333333333206 922.8333333333334) rotate(0 240.23437500000003 276)"><text x="0" y="0" font-family="Cascadia, Segoe UI Emoji" font-size="20px" fill="#000000" text-anchor="start" style="white-space: pre;" direction="ltr" dominant-baseline="text-before-edge"></text><text x="0" y="24" font-family="Cascadia, Segoe UI Emoji" font-size="20px" fill="#000000" text-anchor="start" style="white-space: pre;" direction="ltr" dominant-baseline="text-before-edge">{ onenter:</text><text x="0" y="48" font-family="Cascadia, Segoe UI Emoji" font-size="20px" fill="#000000" text-anchor="start" style="white-space: pre;" direction="ltr" dominant-baseline="text-before-edge">[</text><text x="0" y="72" font-family="Cascadia, Segoe UI Emoji" font-size="20px" fill="#000000" text-anchor="start" style="white-space: pre;" direction="ltr" dominant-baseline="text-before-edge">["image","prolog_bg",0,-550],</text><text x="0" y="96" font-family="Cascadia, Segoe UI Emoji" font-size="20px" fill="#000000" text-anchor="start" style="white-space: pre;" direction="ltr" dominant-baseline="text-before-edge">["moveto","prolog_bg",0,0,300,"ease in"],</text><text x="0" y="120" font-family="Cascadia, Segoe UI Emoji" font-size="20px" fill="#000000" text-anchor="start" style="white-space: pre;" direction="ltr" dominant-baseline="text-before-edge">["wait",150],</text><text x="0" y="144" font-family="Cascadia, Segoe UI Emoji" font-size="20px" fill="#000000" text-anchor="start" style="white-space: pre;" direction="ltr" dominant-baseline="text-before-edge">["say","                    CHEL:NA</text><text x="0" y="168" font-family="Cascadia, Segoe UI Emoji" font-size="20px" fill="#000000" text-anchor="start" style="white-space: pre;" direction="ltr" dominant-baseline="text-before-edge">          The last time I saw</text><text x="0" y="192" font-family="Cascadia, Segoe UI Emoji" font-size="20px" fill="#000000" text-anchor="start" style="white-space: pre;" direction="ltr" dominant-baseline="text-before-edge">          her... She was smiling. As</text><text x="0" y="216" font-family="Cascadia, Segoe UI Emoji" font-size="20px" fill="#000000" text-anchor="start" style="white-space: pre;" direction="ltr" dominant-baseline="text-before-edge">          if she had some secret that</text><text x="0" y="240" font-family="Cascadia, Segoe UI Emoji" font-size="20px" fill="#000000" text-anchor="start" style="white-space: pre;" direction="ltr" dominant-baseline="text-before-edge">          she couldn't wait to tell me.</text><text x="0" y="264" font-family="Cascadia, Segoe UI Emoji" font-size="20px" fill="#000000" text-anchor="start" style="white-space: pre;" direction="ltr" dominant-baseline="text-before-edge">          </text><text x="0" y="288" font-family="Cascadia, Segoe UI Emoji" font-size="20px" fill="#000000" text-anchor="start" style="white-space: pre;" direction="ltr" dominant-baseline="text-before-edge">          And then, in a sudden wash of</text><text x="0" y="312" font-family="Cascadia, Segoe UI Emoji" font-size="20px" fill="#000000" text-anchor="start" style="white-space: pre;" direction="ltr" dominant-baseline="text-before-edge">          red, she was gone.</text><text x="0" y="336" font-family="Cascadia, Segoe UI Emoji" font-size="20px" fill="#000000" text-anchor="start" style="white-space: pre;" direction="ltr" dominant-baseline="text-before-edge">          </text><text x="0" y="360" font-family="Cascadia, Segoe UI Emoji" font-size="20px" fill="#000000" text-anchor="start" style="white-space: pre;" direction="ltr" dominant-baseline="text-before-edge">          Gone as if she had never stood</text><text x="0" y="384" font-family="Cascadia, Segoe UI Emoji" font-size="20px" fill="#000000" text-anchor="start" style="white-space: pre;" direction="ltr" dominant-baseline="text-before-edge">          beneath the uncaring stars.</text><text x="0" y="408" font-family="Cascadia, Segoe UI Emoji" font-size="20px" fill="#000000" text-anchor="start" style="white-space: pre;" direction="ltr" dominant-baseline="text-before-edge"></text><text x="0" y="432" font-family="Cascadia, Segoe UI Emoji" font-size="20px" fill="#000000" text-anchor="start" style="white-space: pre;" direction="ltr" dominant-baseline="text-before-edge">"],</text><text x="0" y="456" font-family="Cascadia, Segoe UI Emoji" font-size="20px" fill="#000000" text-anchor="start" style="white-space: pre;" direction="ltr" dominant-baseline="text-before-edge">["fadeout",43],</text><text x="0" y="480" font-family="Cascadia, Segoe UI Emoji" font-size="20px" fill="#000000" text-anchor="start" style="white-space: pre;" direction="ltr" dominant-baseline="text-before-edge">["jump","INTRO"],true]</text><text x="0" y="504" font-family="Cascadia, Segoe UI Emoji" font-size="20px" fill="#000000" text-anchor="start" style="white-space: pre;" direction="ltr" dominant-baseline="text-before-edge">}</text><text x="0" y="528" font-family="Cascadia, Segoe UI Emoji" font-size="20px" fill="#000000" text-anchor="start" style="white-space: pre;" direction="ltr" dominant-baseline="text-before-edge"></text></g><g stroke-linecap="round" transform="translate(608.9166666666654 627.3333333333334) rotate(0 21.5 16.5)"><path d="M0.68 9.87 C0.68 9.87, 0.68 9.87, 0.68 9.87 M0.68 9.87 C0.68 9.87, 0.68 9.87, 0.68 9.87 M-0.72 15.81 C3.53 11.27, 9.06 5.41, 11.76 1.26 M0.75 16.81 C5.58 11.62, 8.74 5.45, 13.07 2.65 M0.91 23.63 C5.51 15.38, 13.39 10.41, 14.37 4.39 M-0.79 23.17 C4.36 18.71, 8.34 12.72, 16.2 5.37 M2.47 24.13 C9.18 15.95, 14.74 8.08, 19.61 3.84 M2.85 24.68 C7.38 20.91, 11.36 17.39, 21.13 4.18 M5.8 26.95 C10.86 20.01, 15.08 15.49, 27.97 0.69 M5.93 27.89 C11.83 20.57, 16.22 15.42, 27.57 2.13 M7.95 31.63 C16.18 24.49, 20.61 19.6, 32.35 5.05 M10.29 29.96 C15.41 24.03, 20.37 17.01, 33.17 2.8 M10.94 33.58 C19.43 24.1, 28.73 11.36, 37.14 3.86 M13.4 32.5 C17.11 27.43, 23 21.38, 36.88 6.06 M18.36 31.54 C26.36 24.28, 34.25 15.38, 40.96 7.21 M17.13 33 C26.33 24.4, 33.08 15.42, 39.77 6.34 M22.73 33.17 C31.02 24.94, 36.95 16.76, 40.54 12.53 M23.17 34.25 C28.9 24.95, 37.6 16.05, 41.09 10.7 M26.59 36.73 C29.49 27.48, 36.48 25.07, 42.55 15.88 M26.32 35.89 C31.18 30.95, 34.05 25.53, 44.23 15.92" stroke="#15aabf" stroke-width="0.5" fill="none"></path><path d="M26.31 -0.21 C30.79 0.2, 36.21 3.18, 39.09 5.92 C41.96 8.67, 43.83 12.59, 43.57 16.25 C43.31 19.9, 40.57 24.96, 37.55 27.84 C34.53 30.72, 29.87 33.11, 25.46 33.52 C21.04 33.92, 15.22 32.1, 11.05 30.27 C6.88 28.44, 2.14 25.95, 0.42 22.54 C-1.3 19.13, -1.22 13.1, 0.73 9.81 C2.68 6.52, 7.66 4.19, 12.12 2.81 C16.58 1.44, 24.78 1.86, 27.5 1.54 C30.21 1.22, 28.38 0.9, 28.42 0.87 M13.85 0.58 C17.88 -0.73, 23.53 1.18, 27.81 2.39 C32.08 3.6, 37.12 5.07, 39.51 7.84 C41.91 10.62, 42.93 15.25, 42.17 19.06 C41.41 22.87, 38.52 28.51, 34.94 30.69 C31.36 32.88, 25.26 32.68, 20.68 32.18 C16.1 31.68, 10.95 29.93, 7.45 27.68 C3.94 25.43, 0.19 21.81, -0.35 18.69 C-0.88 15.57, 1.8 11.72, 4.24 8.97 C6.68 6.22, 12.79 3.27, 14.31 2.19 C15.82 1.1, 12.95 2.33, 13.34 2.45" stroke="#000000" stroke-width="1" fill="none"></path></g><g transform="translate(153.91666666666663 568.9999999999995) rotate(0 51.5625 9.5)"><text x="0" y="0" font-family="Cascadia, Segoe UI Emoji" font-size="16px" fill="#000000" text-anchor="start" style="white-space: pre;" direction="ltr" dominant-baseline="text-before-edge">grammar.ohm</text></g><g transform="translate(116.58333333333303 10) rotate(0 120.61988830566406 12.5)"><text x="0" y="0" font-family="Virgil, Segoe UI Emoji" font-size="20px" fill="#000000" text-anchor="start" style="white-space: pre;" direction="ltr" dominant-baseline="text-before-edge">game script - input text</text></g><g transform="translate(664.9166666666645 523.3333333333334) rotate(0 64.7359619140625 17.5)"><text x="0" y="0" font-family="Virgil, Segoe UI Emoji" font-size="28px" fill="#000000" text-anchor="start" style="white-space: pre;" direction="ltr" dominant-baseline="text-before-edge">tranpsiler</text></g><g transform="translate(122.41666666666526 879.8333333333334) rotate(0 79.51993560791016 12.5)"><text x="0" y="0" font-family="Virgil, Segoe UI Emoji" font-size="20px" fill="#000000" text-anchor="start" style="white-space: pre;" direction="ltr" dominant-baseline="text-before-edge">generated JSON</text></g><g stroke-opacity="0.7" fill-opacity="0.7" stroke-linecap="round" transform="translate(10 689.0833333333327) rotate(0 71.66666666666674 33.833333333333655)"><path d="M2.66 6.29 C2.66 6.29, 2.66 6.29, 2.66 6.29 M2.66 6.29 C2.66 6.29, 2.66 6.29, 2.66 6.29 M1.09 14.19 C2.38 12.39, 7.13 7.93, 9.61 4.38 M1.09 14.19 C3.37 11.02, 6.23 7.21, 9.61 4.38 M1.48 19.84 C6.37 16.95, 9.7 11.81, 17.88 0.97 M1.48 19.84 C7.05 13.28, 13.31 5.91, 17.88 0.97 M1.22 26.23 C7.63 21.08, 10.07 13.48, 23.52 0.57 M1.22 26.23 C6.87 20.22, 12.4 13.55, 23.52 0.57 M1.61 31.88 C8.39 20.08, 19.48 10.21, 28.51 0.93 M1.61 31.88 C11.13 21.06, 21.16 8.68, 28.51 0.93 M1.35 38.28 C9.58 29.99, 15.91 22.12, 34.15 0.54 M1.35 38.28 C7.28 30.35, 15.52 22.93, 34.15 0.54 M1.09 44.67 C10.48 31.62, 20.9 19.42, 39.14 0.9 M1.09 44.67 C12.46 32.35, 21.43 20.73, 39.14 0.9 M1.48 50.32 C14.31 34.28, 29.12 22.75, 44.13 1.26 M1.48 50.32 C13.1 37.67, 24.03 26.37, 44.13 1.26 M1.88 55.96 C13.77 42.93, 22.67 31.33, 49.77 0.87 M1.88 55.96 C14.84 39.78, 29.47 24.14, 49.77 0.87 M2.27 61.6 C18.41 44.49, 32.1 25.21, 54.76 1.23 M2.27 61.6 C15.22 45.79, 29.54 29.3, 54.76 1.23 M5.29 64.23 C25.88 40.75, 43.7 19.9, 60.4 0.83 M5.29 64.23 C20.19 48.59, 33.47 30.44, 60.4 0.83 M8.31 66.85 C22.83 51.87, 34.91 36.28, 65.39 1.19 M8.31 66.85 C26.39 46.16, 44.93 24.75, 65.39 1.19 M12.64 67.97 C34 47.95, 51.93 22.47, 71.03 0.8 M12.64 67.97 C27.38 49.94, 42.46 34.3, 71.03 0.8 M17.63 68.33 C39.11 45.01, 57.62 22, 76.02 1.16 M17.63 68.33 C40.22 43.17, 61.87 16.91, 76.02 1.16 M23.27 67.93 C37.05 51.56, 53.72 34.03, 81.66 0.76 M23.27 67.93 C45.21 42.31, 66.25 15.98, 81.66 0.76 M28.26 68.29 C41.82 51.07, 58.98 32.9, 86.65 1.12 M28.26 68.29 C43.54 49.88, 58.42 33.12, 86.65 1.12 M33.25 68.65 C47.9 53.13, 61.04 39.99, 92.29 0.73 M33.25 68.65 C51.09 47.67, 70.6 25.59, 92.29 0.73 M38.89 68.26 C52.37 51.25, 67.06 33.4, 97.28 1.09 M38.89 68.26 C57.57 45.77, 75.12 24.39, 97.28 1.09 M43.88 68.62 C62.67 47.65, 78.83 30.6, 102.92 0.69 M43.88 68.62 C56.35 53.76, 68.74 39.51, 102.92 0.69 M49.52 68.22 C65.94 47.87, 85.91 25.13, 107.91 1.05 M49.52 68.22 C66.76 47.99, 83.15 27.12, 107.91 1.05 M54.51 68.58 C73.57 51.2, 89.79 29.23, 113.55 0.66 M54.51 68.58 C67.05 54.05, 81.42 39.16, 113.55 0.66 M60.15 68.19 C77.71 48.25, 95.9 27.64, 118.54 1.02 M60.15 68.19 C76.09 48.35, 92.63 31.15, 118.54 1.02 M65.14 68.55 C83.02 48.18, 101.5 26.24, 124.18 0.62 M65.14 68.55 C86.77 44.3, 106.67 21.67, 124.18 0.62 M70.78 68.15 C82.86 50.15, 99.11 35.96, 128.51 1.74 M70.78 68.15 C93.03 43.02, 114.77 17.87, 128.51 1.74 M75.77 68.51 C93.14 49.84, 109.88 28.04, 132.84 2.85 M75.77 68.51 C95.75 44.27, 116.59 20.88, 132.84 2.85 M81.41 68.12 C105.1 42.8, 125.65 14.83, 137.83 3.21 M81.41 68.12 C93.41 53.92, 105.41 40.3, 137.83 3.21 M86.4 68.48 C102.37 48.78, 119.19 29.35, 140.85 5.84 M86.4 68.48 C104.32 48.58, 122.4 27.81, 140.85 5.84 M92.04 68.08 C112.91 43.04, 132.91 19.95, 143.21 9.22 M92.04 68.08 C103.7 53.72, 116.98 39.21, 143.21 9.22 M97.03 68.44 C113.75 47.41, 129.3 27.99, 144.26 14.11 M97.03 68.44 C109.2 53.84, 122.24 39.43, 144.26 14.11 M102.67 68.05 C113.69 51.77, 126.98 40.94, 144.66 19.75 M102.67 68.05 C113.76 55.65, 122.83 44.15, 144.66 19.75 M107.66 68.41 C119.05 52.64, 134.4 37.13, 144.4 26.15 M107.66 68.41 C118.42 57.38, 127.55 46.68, 144.4 26.15 M113.3 68.02 C123.09 54.51, 132.38 45.08, 144.13 32.54 M113.3 68.02 C121.05 60.25, 127.43 52.35, 144.13 32.54 M118.29 68.38 C123.76 59.11, 134.99 52.64, 144.53 38.19 M118.29 68.38 C123.13 61.3, 130.47 55.25, 144.53 38.19 M123.93 67.98 C132.16 61.2, 137.5 50.11, 144.27 44.58 M123.93 67.98 C129.14 61.42, 135.73 53.58, 144.27 44.58 M128.26 69.1 C133.5 61.56, 139.12 58.04, 144.01 50.98 M128.26 69.1 C133.43 62.97, 136.12 58.76, 144.01 50.98 M136.53 65.68 C137.71 63.93, 139.44 63.01, 141.78 59.64 M136.53 65.68 C138.88 63.17, 140.55 60.95, 141.78 59.64" stroke="#82c91e" stroke-width="0.5" fill="none"></path><path d="M16.92 0 M16.92 0 C58.5 -0.9, 98.33 0.32, 126.42 0 M16.92 0 C54.37 0.71, 93.21 0.92, 126.42 0 M126.42 0 C139.62 1.23, 145.05 7.54, 143.33 16.92 M126.42 0 C138.79 0.52, 144.99 3.74, 143.33 16.92 M143.33 16.92 C141.16 24.77, 141.36 31.42, 143.33 50.75 M143.33 16.92 C143.98 24.94, 144.33 31.79, 143.33 50.75 M143.33 50.75 C144.95 64.01, 137.64 67.21, 126.42 67.67 M143.33 50.75 C143.33 63.01, 137.57 68.94, 126.42 67.67 M126.42 67.67 C91.74 66.87, 55.94 67.77, 16.92 67.67 M126.42 67.67 C86.06 68.27, 47.46 68.68, 16.92 67.67 M16.92 67.67 C3.81 69.51, -1.09 63.95, 0 50.75 M16.92 67.67 C7.37 67.42, 0.96 60.81, 0 50.75 M0 50.75 C-1.87 35.82, -0.28 26.71, 0 16.92 M0 50.75 C0.06 37.69, -0.19 24.25, 0 16.92 M0 16.92 C0.71 4.54, 3.9 -0.04, 16.92 0 M0 16.92 C-1.76 4.67, 4.98 1.07, 16.92 0" stroke="#000000" stroke-width="1" fill="none"></path></g><g transform="translate(20.66666666666697 716.3433024088534) rotate(0 60.9375 9.5)"><text x="0" y="0" font-family="Cascadia, Segoe UI Emoji" font-size="16px" fill="#000000" text-anchor="start" style="white-space: pre;" direction="ltr" dominant-baseline="text-before-edge">fabricate.fab</text></g><g transform="translate(156.66666666666663 63.250000000000114) rotate(0 214.77728271484375 170)"><text x="0" y="0" font-family="Virgil, Segoe UI Emoji" font-size="16px" fill="#000000" text-anchor="start" style="white-space: pre;" direction="ltr" dominant-baseline="text-before-edge"> Show prolog_bg at 0x-550. Move prolog_bg to 0x0</text><text x="0" y="20" font-family="Virgil, Segoe UI Emoji" font-size="16px" fill="#000000" text-anchor="start" style="white-space: pre;" direction="ltr" dominant-baseline="text-before-edge">over 300 frames. Wait 150 frames.</text><text x="0" y="40" font-family="Virgil, Segoe UI Emoji" font-size="16px" fill="#000000" text-anchor="start" style="white-space: pre;" direction="ltr" dominant-baseline="text-before-edge"></text><text x="0" y="60" font-family="Virgil, Segoe UI Emoji" font-size="16px" fill="#000000" text-anchor="start" style="white-space: pre;" direction="ltr" dominant-baseline="text-before-edge">                    CHEL:NA</text><text x="0" y="80" font-family="Virgil, Segoe UI Emoji" font-size="16px" fill="#000000" text-anchor="start" style="white-space: pre;" direction="ltr" dominant-baseline="text-before-edge">          The last time I saw</text><text x="0" y="100" font-family="Virgil, Segoe UI Emoji" font-size="16px" fill="#000000" text-anchor="start" style="white-space: pre;" direction="ltr" dominant-baseline="text-before-edge">          her... She was smiling. As</text><text x="0" y="120" font-family="Virgil, Segoe UI Emoji" font-size="16px" fill="#000000" text-anchor="start" style="white-space: pre;" direction="ltr" dominant-baseline="text-before-edge">          if she had some secret that</text><text x="0" y="140" font-family="Virgil, Segoe UI Emoji" font-size="16px" fill="#000000" text-anchor="start" style="white-space: pre;" direction="ltr" dominant-baseline="text-before-edge">          she couldn't wait to tell me.</text><text x="0" y="160" font-family="Virgil, Segoe UI Emoji" font-size="16px" fill="#000000" text-anchor="start" style="white-space: pre;" direction="ltr" dominant-baseline="text-before-edge">          </text><text x="0" y="180" font-family="Virgil, Segoe UI Emoji" font-size="16px" fill="#000000" text-anchor="start" style="white-space: pre;" direction="ltr" dominant-baseline="text-before-edge">          And then, in a sudden wash of</text><text x="0" y="200" font-family="Virgil, Segoe UI Emoji" font-size="16px" fill="#000000" text-anchor="start" style="white-space: pre;" direction="ltr" dominant-baseline="text-before-edge">          red, she was gone.</text><text x="0" y="220" font-family="Virgil, Segoe UI Emoji" font-size="16px" fill="#000000" text-anchor="start" style="white-space: pre;" direction="ltr" dominant-baseline="text-before-edge">          </text><text x="0" y="240" font-family="Virgil, Segoe UI Emoji" font-size="16px" fill="#000000" text-anchor="start" style="white-space: pre;" direction="ltr" dominant-baseline="text-before-edge">          Gone as if she had never stood</text><text x="0" y="260" font-family="Virgil, Segoe UI Emoji" font-size="16px" fill="#000000" text-anchor="start" style="white-space: pre;" direction="ltr" dominant-baseline="text-before-edge">          beneath the uncaring stars.</text><text x="0" y="280" font-family="Virgil, Segoe UI Emoji" font-size="16px" fill="#000000" text-anchor="start" style="white-space: pre;" direction="ltr" dominant-baseline="text-before-edge"></text><text x="0" y="300" font-family="Virgil, Segoe UI Emoji" font-size="16px" fill="#000000" text-anchor="start" style="white-space: pre;" direction="ltr" dominant-baseline="text-before-edge"> Fade to black over 43 frames. Jump INTRO.</text><text x="0" y="320" font-family="Virgil, Segoe UI Emoji" font-size="16px" fill="#000000" text-anchor="start" style="white-space: pre;" direction="ltr" dominant-baseline="text-before-edge"></text></g><g stroke-linecap="round"><g transform="translate(573.9986933306959 420.2500000000001) rotate(0 26.96806012633556 102.12865402330509)"><path d="M-1.02 -0.61 C7.71 33.48, 43.5 169.73, 52.68 203.85 M0.65 1.68 C9.72 35.96, 46.13 170.98, 54.95 204.87" stroke="#000000" stroke-width="1" fill="none"></path></g><g transform="translate(573.9986933306959 420.2500000000001) rotate(0 26.96806012633556 102.12865402330509)"><path d="M36.78 178.85 C41.63 189.35, 47.64 197.87, 54.62 202.98 M37 179.9 C43.52 188.17, 50.7 198.22, 54.95 204.35" stroke="#000000" stroke-width="1" fill="none"></path></g><g transform="translate(573.9986933306959 420.2500000000001) rotate(0 26.96806012633556 102.12865402330509)"><path d="M56.61 173.58 C54.93 185.64, 54.45 195.89, 54.62 202.98 M56.84 174.64 C56.4 184.94, 56.61 196.84, 54.95 204.35" stroke="#000000" stroke-width="1" fill="none"></path></g></g><mask></mask><g transform="translate(669.4154866536448 641.2500000000003) rotate(0 187.5 9.5)"><text x="0" y="0" font-family="Cascadia, Segoe UI Emoji" font-size="16px" fill="#000000" text-anchor="start" style="white-space: pre;" direction="ltr" dominant-baseline="text-before-edge">./fab grammar.ohm fabricate.fqb &lt;src.txt</text></g><g transform="translate(150.50000000000057 510.41666666666634) rotate(0 160.86985778808594 12.5)"><text x="0" y="0" font-family="Virgil, Segoe UI Emoji" font-size="20px" fill="#000000" text-anchor="start" style="white-space: pre;" direction="ltr" dominant-baseline="text-before-edge">pattern specification ("grammar")</text></g><g transform="translate(10.666666666667197 652.0833333333328) rotate(0 117.66988372802734 12.5)"><text x="0" y="0" font-family="Virgil, Segoe UI Emoji" font-size="20px" fill="#000000" text-anchor="start" style="white-space: pre;" direction="ltr" dominant-baseline="text-before-edge">fabrication specification</text></g><g stroke-linecap="round"><g transform="translate(620.9999999999993 656.2500000000002) rotate(0 -124.99237217688466 127.44666738110595)"><path d="M0.93 0.48 C-40.8 42.92, -208.02 211.6, -249.98 254.12 M-0.05 -0.31 C-41.96 42.3, -209.53 212.88, -250.91 255.2" stroke="#000000" stroke-width="1" fill="none"></path></g><g transform="translate(620.9999999999993 656.2500000000002) rotate(0 -124.99237217688466 127.44666738110595)"><path d="M-237.7 227.93 C-244.18 235.7, -245.74 246.83, -252.11 254.79 M-237.67 228.66 C-241.1 234.56, -243.29 240.72, -251.37 255.09" stroke="#000000" stroke-width="1" fill="none"></path></g><g transform="translate(620.9999999999993 656.2500000000002) rotate(0 -124.99237217688466 127.44666738110595)"><path d="M-223.04 242.3 C-234.31 245.43, -240.72 251.81, -252.11 254.79 M-223.02 243.03 C-229.71 245.56, -235.19 248.49, -251.37 255.09" stroke="#000000" stroke-width="1" fill="none"></path></g></g><mask></mask><g stroke-linecap="round"><g transform="translate(149.01878034942467 713.2760382448577) rotate(0 232.48398954682946 -32.2692359929608)"><path d="M-0.73 0.33 C77.06 -10.22, 388.05 -52.48, 465.7 -63.36 M1.09 -0.54 C78.77 -11.39, 386.77 -54.32, 464.52 -64.87" stroke="#000000" stroke-width="1" fill="none"></path></g><g transform="translate(149.01878034942467 713.2760382448577) rotate(0 232.48398954682946 -32.2692359929608)"><path d="M438.55 -51.61 C445.59 -55.32, 448.61 -56.4, 465.33 -65.05 M438.18 -51.31 C443.62 -53.51, 449.64 -58.03, 465.38 -64.23" stroke="#000000" stroke-width="1" fill="none"></path></g><g transform="translate(149.01878034942467 713.2760382448577) rotate(0 232.48398954682946 -32.2692359929608)"><path d="M435.74 -71.93 C443.37 -71.3, 446.99 -68.05, 465.33 -65.05 M435.38 -71.63 C441.4 -69.52, 448.02 -69.71, 465.38 -64.23" stroke="#000000" stroke-width="1" fill="none"></path></g></g><mask></mask><g stroke-linecap="round"><g transform="translate(283.0000000000001 575.7482585221023) rotate(0 165.12505680400892 28.634936430015898)"><path d="M-0.68 0.81 C54.19 10.3, 273.62 47.85, 328.53 57.08 M1.17 0.19 C56.5 9.35, 276.48 45.93, 330.93 55.5" stroke="#000000" stroke-width="1" fill="none"></path></g><g transform="translate(283.0000000000001 575.7482585221023) rotate(0 165.12505680400892 28.634936430015898)"><path d="M302.77 59.88 C310.3 59.18, 315.99 60.02, 331.93 56.8 M301.8 60.69 C309.97 59.79, 319.41 58.79, 331.32 55.37" stroke="#000000" stroke-width="1" fill="none"></path></g><g transform="translate(283.0000000000001 575.7482585221023) rotate(0 165.12505680400892 28.634936430015898)"><path d="M306.21 39.65 C312.93 43.83, 317.8 49.58, 331.93 56.8 M305.24 40.46 C312.22 45.45, 320.67 50.33, 331.32 55.37" stroke="#000000" stroke-width="1" fill="none"></path></g></g><mask></mask></svg>